<?xml version="1.0" encoding="iso-8859-1"?>
<!-- Generator: Adobe Illustrator 19.0.0, SVG Export Plug-In . SVG Version: 6.00 Build 0)  -->
<svg version="1.1" id="Capa_1" xmlns="http://www.w3.org/2000/svg" xmlns:xlink="http://www.w3.org/1999/xlink" x="0px" y="0px"
	 viewBox="-967 712.961 112.039 112.039" style="enable-background:new -967 712.961 112.039 112.039;" xml:space="preserve">
<g id="XMLID_68_">
</g>
<g id="XMLID_69_">
</g>
<g id="XMLID_70_">
</g>
<g id="XMLID_72_">
</g>
<g id="XMLID_73_">
</g>
<g id="XMLID_74_">
</g>
<g id="XMLID_75_">
</g>
<g id="XMLID_76_">
</g>
<g id="XMLID_77_">
</g>
<g id="XMLID_84_">
</g>
<path id="XMLID_10_" style="fill:#FFFFFF;" d="M-910.979,758.465c-5.812,0-10.518,4.705-10.518,10.516
	c0,5.805,4.706,10.515,10.518,10.515c5.806,0,10.515-4.71,10.515-10.515C-900.464,763.17-905.173,758.465-910.979,758.465z"/>
<path id="XMLID_9_" style="fill:#FFFFFF;" d="M-900.689,742.171h-20.58c-9.125,0-16.522,7.4-16.522,16.52v20.58
	c0,9.126,7.397,16.52,16.522,16.52h20.58c9.12,0,16.519-7.394,16.519-16.52v-20.58
	C-884.171,749.571-891.569,742.171-900.689,742.171z M-910.09,786.575c-9.656,0-17.48-7.828-17.48-17.478
	c0-9.655,7.825-17.477,17.48-17.477c9.652,0,17.477,7.822,17.477,17.477C-892.612,778.747-900.438,786.575-910.09,786.575z
	 M-893.823,755.791c-2.454,0-4.443-1.989-4.443-4.444c0-2.454,1.988-4.447,4.443-4.447c2.452,0,4.446,1.993,4.446,4.447
	C-889.377,753.802-891.371,755.791-893.823,755.791z"/>
<path id="XMLID_8_" style="fill:#FFFFFF;" d="M-910.98,712.961c-30.939,0-56.02,25.081-56.02,56.018
	c0,30.94,25.081,56.021,56.02,56.021c30.938,0,56.019-25.081,56.019-56.021C-854.961,738.042-880.042,712.961-910.98,712.961z
	 M-877.802,781.716c0,11.29-9.152,20.443-20.444,20.443h-25.467c-11.293,0-20.446-9.153-20.446-20.443v-25.465
	c0-11.294,9.153-20.447,20.446-20.447h25.467c11.292,0,20.444,9.154,20.444,20.447V781.716L-877.802,781.716z"/>
</svg>
