<?xml version="1.0" encoding="iso-8859-1"?>
<!-- Generator: Adobe Illustrator 19.0.0, SVG Export Plug-In . SVG Version: 6.00 Build 0)  -->
<svg version="1.1" id="Capa_1" xmlns="http://www.w3.org/2000/svg" xmlns:xlink="http://www.w3.org/1999/xlink" x="0px" y="0px"
	 viewBox="-967 712.961 112.039 112.039" style="enable-background:new -967 712.961 112.039 112.039;" xml:space="preserve">
<path id="XMLID_6_" style="fill:#FFFFFF;" d="M-910.98,712.962c-30.939,0-56.02,25.081-56.02,56.018
	c0,30.939,25.081,56.019,56.02,56.019c30.938,0,56.019-25.08,56.019-56.019C-854.961,738.043-880.043,712.962-910.98,712.962z
	 M-896.231,763.927l-0.477,5.212h-9.85c0,14.858,0,33.179,0,33.179h-13.271c0,0,0-18.139,0-33.179h-6.637v-5.252v-8.018h6.581
	v-5.998c0-5.428,2.586-13.91,13.965-13.91l10.252,0.043v11.371c0,0-6.235,0-7.444,0c-1.21,0-2.935,0.602-2.935,3.188v5.307h10.547
	L-896.231,763.927z"/>
</svg>
