<?xml version="1.0" encoding="iso-8859-1"?>
<!-- Generator: Adobe Illustrator 19.0.0, SVG Export Plug-In . SVG Version: 6.00 Build 0)  -->
<svg version="1.1" id="Capa_1" xmlns="http://www.w3.org/2000/svg" xmlns:xlink="http://www.w3.org/1999/xlink" x="0px" y="0px"
	 viewBox="-967 712.961 112.039 112.039" style="enable-background:new -967 712.961 112.039 112.039;" xml:space="preserve">
<path id="XMLID_17_" style="fill:#FFFFFF;" d="M-910.98,712.961c-30.94,0-56.019,25.081-56.019,56.019
	c0,30.94,25.079,56.021,56.019,56.021c30.938,0,56.018-25.081,56.018-56.021C-854.962,738.042-880.042,712.961-910.98,712.961z
	 M-927.242,764.201v35.11h-15.485v-32.497v-11.74h15.485V764.201z M-934.983,748.438c-4.276,0-7.744-3.465-7.744-7.741
	c0-4.275,3.468-7.742,7.744-7.742s7.742,3.466,7.742,7.742C-927.242,744.972-930.708,748.438-934.983,748.438z M-876.371,775.003
	v24.31h-13.274v-21.554c0-5.143-0.567-11.753-7.615-11.753c-7.152,0-8.244,5.597-8.244,11.381v21.925h-12.891v-35.75v-8.488h12.333
	v5.969h0.191c1.835-3.486,6.326-5.969,13.012-5.969c11.273,0,15.103,5.244,16.151,13.583c0.245,1.954,0.339,4.078,0.339,6.345
	h-0.002V775.003z"/>
</svg>
