<?xml version="1.0" encoding="iso-8859-1"?>
<!-- Generator: Adobe Illustrator 19.0.0, SVG Export Plug-In . SVG Version: 6.00 Build 0)  -->
<svg version="1.1" id="Capa_1" xmlns="http://www.w3.org/2000/svg" xmlns:xlink="http://www.w3.org/1999/xlink" x="0px" y="0px"
	 viewBox="-967 712.961 112.039 112.039" style="enable-background:new -967 712.961 112.039 112.039;" xml:space="preserve">
<path id="XMLID_32_" style="fill:#FFFFFF;" d="M-910.981,712.961c-30.938,0-56.019,25.081-56.019,56.019
	c0,30.939,25.081,56.019,56.019,56.019c30.938,0,56.019-25.081,56.019-56.019C-854.961,738.042-880.042,712.961-910.981,712.961z
	 M-883.632,794.757h-54.698c-1.497,0-2.795-0.494-3.897-1.47l18.869-18.872c0.472,0.339,0.909,0.656,1.302,0.944
	c1.412,1.04,2.558,1.852,3.438,2.433c0.879,0.583,2.05,1.177,3.511,1.784c1.462,0.608,2.824,0.91,4.088,0.91h0.037h0.037
	c1.264,0,2.626-0.303,4.088-0.91c1.461-0.607,2.632-1.2,3.511-1.784c0.88-0.581,2.026-1.393,3.437-2.433
	c0.415-0.3,0.853-0.615,1.306-0.939l18.866,18.866C-880.838,794.263-882.135,794.757-883.632,794.757z M-943.509,788.011v-28.704
	c1.09,1.214,2.342,2.292,3.754,3.233c5.262,3.576,9.548,6.52,12.874,8.843L-943.509,788.011z M-878.454,788.011l-16.621-16.621
	c3.543-2.474,7.844-5.423,12.906-8.849c1.412-0.966,2.65-2.043,3.715-3.233V788.011z M-879.506,754.76
	c-1.214,1.783-2.725,3.307-4.533,4.57c-6.012,4.173-10.549,7.323-13.63,9.464c-1.693,1.176-2.952,2.051-3.76,2.613
	c-0.12,0.084-0.307,0.217-0.555,0.396c-0.268,0.192-0.607,0.436-1.024,0.738c-0.805,0.582-1.474,1.053-2.006,1.412
	c-0.534,0.359-1.177,0.762-1.933,1.208c-0.756,0.446-1.468,0.781-2.137,1.004c-0.668,0.222-1.288,0.334-1.858,0.334h-0.038h-0.037
	c-0.569,0-1.189-0.112-1.858-0.334c-0.669-0.223-1.381-0.558-2.137-1.004c-0.756-0.446-1.4-0.848-1.932-1.208
	c-0.532-0.36-1.201-0.83-2.006-1.412c-0.418-0.302-0.757-0.546-1.025-0.738c-0.249-0.178-0.436-0.311-0.555-0.395
	c-1.038-0.729-2.294-1.609-3.75-2.624c-1.71-1.192-3.698-2.574-5.985-4.158c-4.236-2.935-6.776-4.7-7.618-5.295
	c-1.536-1.04-2.985-2.47-4.348-4.291c-1.362-1.822-2.043-3.512-2.043-5.073c0-1.932,0.513-3.543,1.542-4.831
	c1.028-1.287,2.495-1.932,4.403-1.932h54.697c1.61,0,3.004,0.582,4.181,1.746c1.175,1.165,1.764,2.565,1.764,4.199
	C-877.687,751.107-878.294,752.977-879.506,754.76z"/>
<g id="XMLID_68_">
</g>
<g id="XMLID_69_">
</g>
<g id="XMLID_70_">
</g>
<g id="XMLID_72_">
</g>
<g id="XMLID_73_">
</g>
<g id="XMLID_74_">
</g>
<g id="XMLID_75_">
</g>
<g id="XMLID_76_">
</g>
<g id="XMLID_77_">
</g>
<g id="XMLID_84_">
</g>
<g id="XMLID_85_">
</g>
</svg>
