<!DOCTYPE svg PUBLIC "-//W3C//DTD SVG 1.1//EN" "http://www.w3.org/Graphics/SVG/1.1/DTD/svg11.dtd">
<svg id="logo" xmlns="http://www.w3.org/2000/svg" viewBox="0 0 428 127" style="margin-top:0px;">

  
<polygon points="232.4 93.8 233.4 83.3 224.5 89.2 232.4 93.8" />
<polygon points="115.3 71.8 112.6 88.3 119.8 79.6 115.3 71.8" />
<polygon points="340.5 70.1 332.9 73.9 343.8 77.3 340.5 70.1" />
<polygon points="99.4 74.7 89.5 69.2 91.7 79.1 99.4 74.7" />
<polygon points="21.3 53.2 22.1 62.1 28 54.8 21.3 53.2" />
<polygon points="364.7 22.3 373.2 23.9 370.1 14.3 364.7 22.3" />
<polygon points="316 27.7 316.2 14 308.1 23.5 316 27.7" />
<polygon points="382.3 40.6 392.7 33.9 380.2 30.1 382.3 40.6" />
<polygon points="285.4 54.8 286.2 66 294.6 61.2 285.4 54.8" />
<polygon points="227.2 13.9 213.6 14.2 226.7 23.5 227.2 13.9" />
<polygon points="351.9 104.9 363.4 105.5 358.4 97.9 351.9 104.9" />
<polygon points="238.5 89.2 238.3 99.4 232.4 93.8 238.5 89.2" />
<polygon points="193.3 77.7 183.9 82.9 193.2 85 193.3 77.7" />
<polygon points="132.4 95.6 126.1 89.3 122.9 98 132.4 95.6" />
<polygon points="295.9 28.2 291.1 21.1 291.2 35 295.9 28.2" />
<polygon points="23.5 70.6 23.6 80.1 31.5 77.3 23.5 70.6" />
<polygon points="63.6 81.1 55.3 87.9 64.5 88.1 63.6 81.1" />
<polygon points="59 72.5 54.1 79 63.6 81.1 59 72.5" />
<polygon points="390.7 43 383.6 46.8 387.9 54 390.7 43" />
<polygon points="23.6 89.6 23.4 98.6 38.3 96 23.6 89.6" />
<polygon points="232.9 112.8 237.9 107.4 230 104.9 232.9 112.8" />
<polygon points="297.7 38.6 304.1 42.2 304 32 297.7 38.6" />
<polygon points="344.4 85.2 338.6 93.1 348.8 91.2 344.4 85.2" />
<polygon points="237.9 107.4 238.3 99.4 230 104.9 237.9 107.4" />
<polygon points="264 66.3 274.7 70.6 273.1 63.5 264 66.3" />
<polygon points="291.1 81.7 282.3 72.2 276.2 77.7 291.1 81.7" />
<polygon points="405.9 51.5 409.2 41.2 398.4 48.5 405.9 51.5" />
<polygon points="238.3 42.5 231.9 49.2 238.6 52.1 238.3 42.5" />
<polygon points="277.2 101.1 279.7 108 286.5 102.4 277.2 101.1" />
<polygon points="117.7 93.1 109.4 103.3 122.9 98 117.7 93.1" />
<polygon points="56.4 19.6 50.4 25.5 62.7 25.9 56.4 19.6" />
<polygon points="216.2 93.5 220.4 104.4 225.4 99.7 216.2 93.5" />
<polygon points="221.1 44.2 220.8 36.8 213.4 38.5 221.1 44.2" />
<polygon points="221.8 53.2 213.3 58.1 223.8 62.8 221.8 53.2" />
<polygon points="91.7 79.1 99.9 86.8 99.4 74.7 91.7 79.1" />
<polygon points="50.4 25.5 38.5 29.8 46.2 32.2 50.4 25.5" />
<polygon points="381.1 86.6 375.4 86.9 377.9 95.6 381.1 86.6" />
<polygon points="251.3 31.2 251.8 41.9 258.3 35.5 251.3 31.2" />
<polygon points="304 32 295.9 28.2 297.7 38.6 304 32" />
<polygon points="32.5 69.3 39.4 63.1 30.2 63.1 32.5 69.3" />
<polygon points="51.7 66.4 54.1 79 59 72.5 51.7 66.4" />
<polygon points="238.4 33.6 228.3 38.9 238.3 42.5 238.4 33.6" />
<polygon points="365 89.1 358.4 97.9 369.3 99.2 365 89.1" />
<polygon points="37.5 80.8 31.5 77.3 30.5 85.2 37.5 80.8" />
<polygon points="208.7 88.3 200.5 84.7 200.7 89.7 208.7 88.3" />
<polygon points="410.4 83.4 413.2 75 400.9 77.6 410.4 83.4" />
<polygon points="100.7 63.9 94.4 57.6 89.5 69.2 100.7 63.9" />
<polygon points="376 41.1 374.7 34.7 367.7 38.4 376 41.1" />
<polygon points="175.5 87.4 182.7 92.4 183.9 82.9 175.5 87.4" />
<polygon points="401.3 29.9 393.7 23.4 392.6 33.9 401.3 29.9" />
<polygon points="19.6 30.6 21.6 37.6 29.5 35 19.6 30.6" />
<polygon points="14.8 69.8 23.5 70.6 22.1 62.1 14.8 69.8" />
<polygon points="284.9 92.7 291.3 96.8 291.4 88.8 284.9 92.7" />
<polygon points="241.7 30.9 241.3 39.2 251.3 31.2 241.7 30.9" />
<polygon points="389.9 62 395.7 65.4 398.5 57 389.9 62" />
<polygon points="325.9 68.5 333 73.9 334.6 65.3 325.9 68.5" />
<polygon points="221.8 53.2 213.4 50.3 213.3 58.1 221.8 53.2" />
<polygon points="376.3 104.5 383.4 109.7 383.9 99.1 376.3 104.5" />
<polygon points="314.5 67.7 320.7 73.4 325.9 68.5 314.5 67.7" />
<polygon points="259.9 51.2 266.4 42.4 251.8 41.9 259.9 51.2" />
<polygon points="395.7 65.4 402.9 68.8 404.8 59.9 395.7 65.4" />
<polygon points="164 41.1 163.7 52.1 167.3 44.9 164 41.1" />
<polygon points="313.9 53.6 301 55.8 310.6 61.5 313.9 53.6" />
<polygon points="266.3 88.3 266.2 81.9 271.3 84.5 266.3 88.3" />
<polygon points="226.7 23.5 213.6 14.2 213.6 28.7 226.7 23.5" />
<polygon points="33.4 104.5 23.4 98.6 23.9 106.3 33.4 104.5" />
<polygon points="62.7 25.9 60.7 38.5 69.1 32.2 62.7 25.9" />
<polygon points="266.4 42.4 266.4 35.8 258.3 35.5 266.4 42.4" />
<polygon points="181.5 70.9 187.6 73.7 188.4 63.6 181.5 70.9" />
<polygon points="238.6 52.1 229.6 56.8 238.3 60.5 238.6 52.1" />
<polygon points="88.5 59.2 89.5 69.2 94.4 57.6 88.5 59.2" />
<polygon points="308.1 23.5 295.9 28.3 304 32.1 308.1 23.5" />
<polygon points="50 13.7 63.7 14.1 56.4 19.6 50 13.7" />
<polygon points="94.2 45.4 100.9 51.2 100.4 39.6 94.2 45.4" />
<polygon points="126.1 89.3 127.5 85.7 119.8 79.6 126.1 89.3" />
<polygon points="266.5 97 269.9 105.3 277.2 101.1 266.5 97" />
<polygon points="255.1 63.9 264 58.8 252 55.6 255.1 63.9" />
<polygon points="164 41.1 167.3 44.9 170.1 36.5 164 41.1" />
<polygon points="272.9 113.6 269.9 105.3 266.3 113 272.9 113.6" />
<polygon points="363.4 105.6 369.3 99.2 358.4 97.9 363.4 105.6" />
<polygon points="14.6 13.5 14.6 27.1 19.6 30.6 14.6 13.5" />
<polygon points="115.3 71.8 105.3 81.3 112.6 88.3 115.3 71.8" />
<polygon points="177.3 39.8 167.3 44.9 175.4 48.7 177.3 39.8" />
<polygon points="266.5 97 277.2 101.1 273.7 91.1 266.5 97" />
<polygon points="296.2 48.5 285.4 54.8 301 55.8 296.2 48.5" />
<polygon points="39.4 88.5 47.4 87.9 37.5 80.8 39.4 88.5" />
<polygon points="89 38.2 82.2 32.5 80.8 44.9 89 38.2" />
<polygon points="100.7 63.9 114 64.1 107.6 57.1 100.7 63.9" />
<polygon points="43.2 20.5 50.4 25.5 50 13.7 43.2 20.5" />
<polygon points="226.2 30.2 228.3 38.9 238.4 33.6 226.2 30.2" />
<polygon points="266.9 13.5 256.6 23.2 266.8 23.2 266.9 13.5" />
<polygon points="268.7 49.4 259.9 51.2 264 58.8 268.7 49.4" />
<polygon points="233.4 83.3 231.9 75.3 225.4 79.9 233.4 83.3" />
<polygon points="55.9 32.3 62.7 25.9 50.4 25.5 55.9 32.3" />
<polygon points="28 54.8 22.1 62.1 30.2 63.1 28 54.8" />
<polygon points="223.8 62.8 229.6 56.8 221.8 53.2 223.8 62.8" />
<polygon points="382.3 40.6 380.2 30.1 374.7 34.7 382.3 40.6" />
<polygon points="324.4 92.9 338.6 93.1 333.1 86 324.4 92.9" />
<polygon points="213.4 50.3 221.8 53.2 221.1 44.2 213.4 50.3" />
<polygon points="246.7 23.8 256.6 23.2 252.6 14 246.7 23.8" />
<polygon points="94.2 45.4 89 38.2 80.8 44.9 94.2 45.4" />
<polygon points="284.9 92.7 277.2 101.1 286.5 102.4 284.9 92.7" />
<polygon points="351.2 33.3 346.2 22.5 339.9 30.8 351.2 33.3" />
<polygon points="14.8 69.8 18.7 75 23.5 70.6 14.8 69.8" />
<polygon points="176.5 78.2 187.6 73.7 181.5 70.9 176.5 78.2" />
<polygon points="89 38.2 100.4 39.6 96.2 31.6 89 38.2" />
<polygon points="129.5 103.5 126.5 111.4 135.7 113.4 129.5 103.5" />
<polygon points="30.5 85.2 23.6 89.6 38.3 96 30.5 85.2" />
<polygon points="137.4 88.4 145.1 94.9 143.8 88 137.4 88.4" />
<polygon points="170.1 36.5 167.3 44.9 177.3 39.8 170.1 36.5" />
<polygon points="293.5 71.7 286.2 66 282.3 72.2 293.5 71.7" />
<polygon points="86.2 51.2 94.4 57.6 94.2 45.4 86.2 51.2" />
<polygon points="32.5 69.3 31.5 77.3 37.5 80.8 32.5 69.3" />
<polygon points="188.5 35.8 179.3 31 177.3 39.8 188.5 35.8" />
<polygon points="200.7 89.7 193.2 85 192.8 94.2 200.7 89.7" />
<polygon points="274.7 70.6 279 60.3 273.1 63.5 274.7 70.6" />
<polygon points="19.6 30.6 24.5 13.7 14.6 13.5 19.6 30.6" />
<polygon points="388.5 72 385 78.7 395.2 74.8 388.5 72" />
<polygon points="369.3 99.2 368.9 113.4 376.3 104.5 369.3 99.2" />
<polygon points="310.6 61.5 300.9 67.5 305.8 69.6 310.6 61.5" />
<polygon points="357.6 39 351.2 33.3 348.7 44.1 357.6 39" />
<polygon points="50.4 25.5 56.4 19.6 50 13.7 50.4 25.5" />
<polygon points="85 24.6 77 20 75.4 26.8 85 24.6" />
<polygon points="213 100.3 208.7 88.3 204.7 98.7 213 100.3" />
<polygon points="138.8 101.9 150.9 101.8 145.1 94.9 138.8 101.9" />
<polygon points="348.7 44.1 338.1 39 336.2 47.2 348.7 44.1" />
<polygon points="183.9 82.9 193.3 77.7 187.6 73.7 183.9 82.9" />
<polygon points="277.2 101.1 284.9 92.7 273.8 91.1 277.2 101.1" />
<polygon points="344.4 85.2 333.1 86 338.6 93.1 344.4 85.2" />
<polygon points="23.5 44.5 14.6 43 14.6 51.6 23.5 44.5" />
<polygon points="366.3 32.6 357.6 39 367.7 38.4 366.3 32.6" />
<polygon points="368.9 113.4 376.3 104.5 383.4 109.7 368.9 113.4" />
<polygon points="231.9 49.2 238.3 42.5 228.3 38.9 231.9 49.2" />
<polygon points="23.9 106.3 14.3 105.3 14.6 113.2 23.9 106.3" />
<polygon points="282.3 72.2 286.2 66 279 60.3 282.3 72.2" />
<polygon points="181.5 70.9 188.4 63.6 178.7 59.5 181.5 70.9" />
<polygon points="308.1 23.5 300.5 13.8 295.9 28.3 308.1 23.5" />
<polygon points="300.9 67.5 294.6 61.2 293.5 71.7 300.9 67.5" />
<polygon points="187.3 105.8 198.9 105.9 192.8 94.2 187.3 105.8" />
<polygon points="213.6 28.7 226.2 30.2 226.7 23.5 213.6 28.7" />
<polygon points="316.3 35.8 303.9 32 304 42.2 316.3 35.8" />
<polygon points="82.2 32.5 72.5 39.5 80.8 44.9 82.2 32.5" />
<polygon points="225.4 99.7 220.4 104.4 230 104.9 225.4 99.7" />
<polygon points="352.3 85.9 344.4 85.2 348.8 91.2 352.3 85.9" />
<polygon points="300.9 67.5 293.5 71.7 297.9 77.3 300.9 67.5" />
<polygon points="252 55.7 245.6 59.6 255 64 252 55.7" />
<polygon points="14.3 95.5 23.4 98.6 23.6 89.6 14.3 95.5" />
<polygon points="188.7 52.5 188.6 44.1 175.4 48.7 188.7 52.5" />
<polygon points="221.1 44.2 228.3 38.9 220.8 36.8 221.1 44.2" />
<polygon points="106.2 36.3 112.5 51.2 105.5 46.3 106.2 36.3" />
<polygon points="29.5 35 21.6 37.6 23.5 44.5 29.5 35" />
<polygon points="269.9 105.3 279.7 108 277.2 101.1 269.9 105.3" />
<polygon points="324.4 92.9 331.2 100.2 338.6 93.1 324.4 92.9" />
<polygon points="161.4 73.7 164.3 80.4 176.5 78.2 161.4 73.7" />
<polygon points="264 66.3 254.2 72.2 267.8 74 264 66.3" />
<polygon points="213.6 77.9 217.4 76.3 213.4 67.7 213.6 77.9" />
<polygon points="324.4 92.9 326.4 80.2 319.5 84.6 324.4 92.9" />
<polygon points="352.2 15.5 354.7 24.4 361.4 14.1 352.2 15.5" />
<polygon points="55.9 32.3 60.7 38.5 62.7 25.9 55.9 32.3" />
<polygon points="213.6 28.7 213.4 38.5 220.8 36.8 213.6 28.7" />
<polygon points="198.9 105.9 187.3 105.8 196.5 109.8 198.9 105.9" />
<polygon points="18.7 75 23.6 80.1 23.5 70.6 18.7 75" />
<polygon points="86.2 51.2 88.5 59.2 94.4 57.6 86.2 51.2" />
<polygon points="175.4 48.7 169.2 55.4 178.7 59.5 175.4 48.7" />
<polygon points="316.8 51 321.8 60.5 329 53.9 316.8 51" />
<polygon points="21.3 53.2 23.5 44.5 14.6 51.6 21.3 53.2" />
<polygon points="223.8 71.5 213.4 67.7 217.4 76.3 223.8 71.5" />
<polygon points="382.3 40.6 374.7 34.7 376 41.1 382.3 40.6" />
<polygon points="105.3 81.3 104.6 91.6 112.6 88.3 105.3 81.3" />
<polygon points="39.4 38.8 48.7 38.8 46.2 32.2 39.4 38.8" />
<polygon points="188.5 27.4 188.4 13.8 181.3 22.6 188.5 27.4" />
<polygon points="38.5 29.8 34.4 22.2 26.5 26.7 38.5 29.8" />
<polygon points="351.9 104.9 356.3 112.7 363.4 105.5 351.9 104.9" />
<polygon points="170.7 66.6 178.7 59.5 169.2 55.4 170.7 66.6" />
<polygon points="231.9 49.2 221.1 44.2 221.8 53.2 231.9 49.2" />
<polygon points="358.4 97.9 365 89.1 356.1 91 358.4 97.9" />
<polygon points="129.5 103.5 138.8 101.9 132.4 95.6 129.5 103.5" />
<polygon points="170.1 36.5 177.3 39.8 179.3 31 170.1 36.5" />
<polygon points="405.6 91.7 410.4 83.4 400.9 77.6 405.6 91.7" />
<polygon points="304 32 316.3 35.8 316 27.7 304 32" />
<polygon points="357.8 30.4 354.6 24.5 351.2 33.3 357.8 30.4" />
<polygon points="105.3 81.3 99.4 74.7 99.9 86.8 105.3 81.3" />
<polygon points="19.6 30.6 14.5 34.5 21.6 37.6 19.6 30.6" />
<polygon points="29.5 35 32.5 43.3 39.4 38.8 29.5 35" />
<polygon points="14.8 69.8 18.7 75 14.2 81.3 14.8 69.8" />
<polygon points="414 56.4 405.9 51.5 409.2 41.2 414 56.4" />
<polygon points="264 58.8 272.6 55.4 268.7 49.4 264 58.8" />
<polygon points="62.7 25.9 69.1 32.2 75.4 26.8 62.7 25.9" />
<polygon points="43.2 20.5 38 13.5 34.4 22.2 43.2 20.5" />
<polygon points="100.7 63.9 100.9 51.2 94.4 57.6 100.7 63.9" />
<polygon points="159.6 98.1 166.5 92.7 159.5 87.4 159.6 98.1" />
<polygon points="167.3 44.9 169.2 55.4 175.4 48.7 167.3 44.9" />
<polygon points="314.5 67.7 320.7 73.4 319.5 84.6 314.5 67.7" />
<polygon points="63.7 14.1 76.7 15.1 70.6 19.6 63.7 14.1" />
<polygon points="320.7 73.4 319.5 84.6 326.4 80.2 320.7 73.4" />
<polygon points="188.5 27.4 179.3 31 188.5 35.8 188.5 27.4" />
<polygon points="19.6 30.6 14.6 27.1 14.5 34.5 19.6 30.6" />
<polygon points="159.5 87.4 166.5 92.7 164.3 80.4 159.5 87.4" />
<polygon points="85 24.6 75.4 26.8 82.2 32.5 85 24.6" />
<polygon points="107.6 57.1 100.9 51.2 100.7 63.9 107.6 57.1" />
<polygon points="183.9 82.9 187.6 73.7 176.5 78.2 183.9 82.9" />
<polygon points="409.2 41.2 400.2 40.1 398.4 48.5 409.2 41.2" />
<polygon points="266.3 88.3 273.7 91.1 271.3 84.5 266.3 88.3" />
<polygon points="291 109.1 279.6 108 283.1 113.6 291 109.1" />
<polygon points="229.6 56.8 223.8 62.8 231.9 66.6 229.6 56.8" />
<polygon points="280.5 85.2 291.1 81.7 276.2 77.7 280.5 85.2" />
<polygon points="107.1 70.3 105.3 81.3 115.3 71.8 107.1 70.3" />
<polygon points="163.9 33.1 170.1 36.5 173 28 163.9 33.1" />
<polygon points="363.4 105.6 368.9 113.4 369.3 99.2 363.4 105.6" />
<polygon points="241.1 13.5 241.7 30.9 246.7 23.8 241.1 13.5" />
<polygon points="46.2 32.2 38.5 29.8 39.4 38.8 46.2 32.2" />
<polygon points="192.8 94.2 193.2 85 182.7 92.4 192.8 94.2" />
<polygon points="366.3 32.6 364.7 22.3 357.8 30.4 366.3 32.6" />
<polygon points="31.5 77.3 23.6 80.1 30.5 85.2 31.5 77.3" />
<polygon points="364.7 22.3 361.4 14.1 354.7 24.5 364.7 22.3" />
<polygon points="238.6 79.1 238.5 89.2 233.4 83.3 238.6 79.1" />
<polygon points="166.5 92.7 175.5 87.4 164.3 80.4 166.5 92.7" />
<polygon points="193.2 85 200.5 84.7 193.3 77.7 193.2 85" />
<polygon points="176.5 78.2 175.5 87.4 183.9 82.9 176.5 78.2" />
<polygon points="135.7 113.4 145.6 112.6 138.8 101.9 135.7 113.4" />
<polygon points="290.7 44.9 297.6 38.6 291.2 35 290.7 44.9" />
<polygon points="266.3 88.3 266.4 97 273.7 91.1 266.3 88.3" />
<polygon points="75.4 26.8 69.1 32.2 72.5 39.5 75.4 26.8" />
<polygon points="159.6 98.1 150.9 101.8 157 109.7 159.6 98.1" />
<polygon points="159.6 98.1 157 109.7 166.8 104.3 159.6 98.1" />
<polygon points="163.7 52.1 169.2 55.4 167.3 44.9 163.7 52.1" />
<polygon points="231.9 75.3 223.8 71.5 225.4 79.9 231.9 75.3" />
<polygon points="151.5 87.8 159.6 98.1 159.5 87.4 151.5 87.8" />
<polygon points="225.4 99.7 230 104.9 238.3 99.4 225.4 99.7" />
<polygon points="321.8 60.5 325.9 68.5 334.6 65.3 321.8 60.5" />
<polygon points="166.5 92.7 176.3 96.2 175.5 87.4 166.5 92.7" />
<polygon points="96.2 31.6 100.4 39.6 106.2 36.3 96.2 31.6" />
<polygon points="285.4 54.8 294.6 61.2 301 55.8 285.4 54.8" />
<polygon points="296.2 48.5 290.7 44.9 285.4 54.8 296.2 48.5" />
<polygon points="331.3 35.8 339.9 30.8 328.4 29.4 331.3 35.8" />
<polygon points="395.2 74.8 396.7 86.7 400.9 77.6 395.2 74.8" />
<polygon points="291.1 81.7 293.5 71.7 282.3 72.2 291.1 81.7" />
<polygon points="259.9 51.2 242 47.4 252 55.7 259.9 51.2" />
<polygon points="44.4 76.3 47.4 87.9 54.1 79 44.4 76.3" />
<polygon points="213.6 28.7 220.8 36.8 226.2 30.2 213.6 28.7" />
<polygon points="400.9 77.6 413.2 75 402.8 68.8 400.9 77.6" />
<polygon points="338.5 106 345.2 99 338.6 93.1 338.5 106" />
<polygon points="157 80.3 159.5 87.4 164.3 80.4 157 80.3" />
<polygon points="41.4 68 44.4 76.3 51.7 66.4 41.4 68" />
<polygon points="163.8 23.1 172.9 19.6 163.7 13.5 163.8 23.1" />
<polygon points="39.4 63.1 51.7 66.4 41.4 68 39.4 63.1" />
<polygon points="85 24.6 86.8 18.9 77 20 85 24.6" />
<polygon points="291.3 96.8 286.5 102.4 291 109.1 291.3 96.8" />
<polygon points="269.9 105.3 272.9 113.6 279.7 108 269.9 105.3" />
<polygon points="266.8 23.2 262.9 29.5 266.4 35.8 266.8 23.2" />
<polygon points="414.5 65.7 404.8 59.9 402.8 68.8 414.5 65.7" />
<polygon points="296.2 48.5 304.1 42.2 297.7 38.6 296.2 48.5" />
<polygon points="105.3 81.3 99.9 86.8 104.6 91.6 105.3 81.3" />
<polygon points="91.7 79.1 97.4 90.6 99.9 86.8 91.7 79.1" />
<polygon points="373.2 23.9 378.7 16.3 370.1 14.2 373.2 23.9" />
<polygon points="127.5 85.7 126.1 89.3 137.4 88.4 127.5 85.7" />
<polygon points="409.2 41.2 400.2 40.1 401.4 29.9 409.2 41.2" />
<polygon points="215.4 112.9 220.4 104.4 213 100.3 215.4 112.9" />
<polygon points="256.6 23.2 262.9 29.5 266.8 23.2 256.6 23.2" />
<polygon points="173 28 170.1 36.5 179.3 31 173 28" />
<polygon points="23.6 80.1 23.6 89.6 30.5 85.2 23.6 80.1" />
<polygon points="390.7 43 392.7 33.9 382.3 40.6 390.7 43" />
<polygon points="329 53.9 334.6 65.2 339.6 59.2 329 53.9" />
<polygon points="82.2 32.5 89 38.2 96.2 31.6 82.2 32.5" />
<polygon points="241.3 39.1 251.8 41.9 251.3 31.1 241.3 39.1" />
<polygon points="170.7 66.6 181.5 70.9 178.7 59.5 170.7 66.6" />
<polygon points="163.7 13.5 178.4 13.7 172.9 19.6 163.7 13.5" />
<polygon points="316.8 51.1 321.8 60.5 314.5 67.7 316.8 51.1" />
<polygon points="188.4 63.6 188.7 52.5 178.7 59.5 188.4 63.6" />
<polygon points="145.6 112.6 150.9 101.8 138.8 101.9 145.6 112.6" />
<polygon points="274.7 70.6 276.2 77.7 282.3 72.2 274.7 70.6" />
<polygon points="399.1 99.9 405.6 91.8 396.6 86.7 399.1 99.9" />
<polygon points="402.8 68.8 395.2 74.8 400.9 77.6 402.8 68.8" />
<polygon points="267.8 74.1 271.4 84.5 276.2 77.7 267.8 74.1" />
<polygon points="340.5 70.1 334.6 65.3 332.9 73.9 340.5 70.1" />
<polygon points="314.5 67.7 325.9 68.5 321.8 60.5 314.5 67.7" />
<polygon points="336.2 47.3 343.9 49.6 348.7 44.1 336.2 47.3" />
<polygon points="258.3 35.5 262.9 29.5 251.3 31.2 258.3 35.5" />
<polygon points="207.2 112.7 204.7 98.7 198.9 105.9 207.2 112.7" />
<polygon points="383.9 99.1 392.2 105 388.6 91.1 383.9 99.1" />
<polygon points="322 38.2 328.2 43.4 331.3 35.8 322 38.2" />
<polygon points="39.4 63.1 32.5 69.3 41.4 68 39.4 63.1" />
<polygon points="264 66.3 267.8 74 274.7 70.6 264 66.3" />
<polygon points="264 58.8 259.9 51.2 252 55.6 264 58.8" />
<polygon points="207.2 112.7 198.9 105.9 196.5 109.8 207.2 112.7" />
<polygon points="343.9 49.6 336.2 47.2 339.6 59.2 343.9 49.6" />
<polygon points="62.7 25.9 63.7 14.1 56.4 19.6 62.7 25.9" />
<polygon points="151.5 87.8 159.5 87.4 157 80.3 151.5 87.8" />
<polygon points="389.9 62 398.5 57 387.8 54 389.9 62" />
<polygon points="392.7 33.9 400.2 40.1 401.4 29.9 392.7 33.9" />
<polygon points="316.3 35.8 304.1 42.2 315.6 45 316.3 35.8" />
<polygon points="338.6 93.1 331.2 100.2 338.5 106 338.6 93.1" />
<polygon points="215.4 112.9 223.7 113.1 220.4 104.4 215.4 112.9" />
<polygon points="32.5 43.3 28 54.8 34.5 51.5 32.5 43.3" />
<polygon points="302.5 49 304.1 42.2 296.2 48.5 302.5 49" />
<polygon points="50 13.7 38 13.5 43.2 20.5 50 13.7" />
<polygon points="332.9 73.8 326.4 80.2 333.1 86 332.9 73.8" />
<polygon points="305.8 69.6 300.9 67.5 297.9 77.3 305.8 69.6" />
<polygon points="46.2 32.2 55.9 32.3 50.4 25.5 46.2 32.2" />
<polygon points="213.5 44.7 221.1 44.2 213.4 38.5 213.5 44.7" />
<polygon points="176.3 96.2 181.6 101.5 182.7 92.4 176.3 96.2" />
<polygon points="30.5 85.2 38.3 96 39.4 88.5 30.5 85.2" />
<polygon points="369.3 99.2 376.4 104.5 377.9 95.6 369.3 99.2" />
<polygon points="145.6 112.6 157 109.7 150.9 101.8 145.6 112.6" />
<polygon points="295.9 28.2 291.2 35 297.6 38.6 295.9 28.2" />
<polygon points="283.1 113.6 291 109.1 291.2 113.3 283.1 113.6" />
<polygon points="231.9 75.3 238.4 69.7 231.9 66.6 231.9 75.3" />
<polygon points="329 53.9 321.8 60.5 334.6 65.2 329 53.9" />
<polygon points="226.7 23.5 238.3 22.5 227.2 13.9 226.7 23.5" />
<polygon points="159.6 98.1 166.8 104.3 166.5 92.7 159.6 98.1" />
<polygon points="39.4 38.8 32.5 43.3 39.4 45.1 39.4 38.8" />
<polygon points="346.7 110 356.3 112.8 351.9 104.9 346.7 110" />
<polygon points="398.5 57 395.6 65.4 404.8 59.9 398.5 57" />
<polygon points="242 47.4 245.6 59.6 252.1 55.6 242 47.4" />
<polygon points="238.6 52.1 231.9 49.2 229.6 56.8 238.6 52.1" />
<polygon points="343.8 77.3 333.1 86 344.4 85.2 343.8 77.3" />
<polygon points="351.2 33.3 339.9 30.8 348.7 44.1 351.2 33.3" />
<polygon points="331.3 35.8 328.2 43.4 338.1 39 331.3 35.8" />
<polygon points="86.8 18.9 76.7 15.1 77 20 86.8 18.9" />
<polygon points="328.4 29.4 322 38.2 331.3 35.8 328.4 29.4" />
<polygon points="163.9 33.1 173 28 163.8 23.1 163.9 33.1" />
<polygon points="339.6 59.2 334.6 65.3 340.5 70.1 339.6 59.2" />
<polygon points="226.2 30.2 220.8 36.8 228.3 38.9 226.2 30.2" />
<polygon points="114 64.1 107.1 70.3 115.3 71.8 114 64.1" />
<polygon points="193.2 85 183.9 82.9 182.7 92.4 193.2 85" />
<polygon points="70.6 19.6 62.7 25.9 75.4 26.8 70.6 19.6" />
<polygon points="388.6 91.1 377.9 95.6 383.8 99.1 388.6 91.1" />
<polygon points="29.5 35 39.4 38.8 38.5 29.8 29.5 35" />
<polygon points="109.4 103.3 118.2 108.6 122.9 98 109.4 103.3" />
<polygon points="266.2 81.9 267.8 74.1 271.3 84.5 266.2 81.9" />
<polygon points="132.4 95.6 138.8 101.9 145.1 94.9 132.4 95.6" />
<polygon points="310.6 61.5 301 55.8 300.9 67.5 310.6 61.5" />
<polygon points="223.8 62.8 223.8 71.5 231.9 66.6 223.8 62.8" />
<polygon points="28 54.8 30.2 63.1 39.4 63.1 28 54.8" />
<polygon points="313.9 53.6 315.6 45 302.5 49 313.9 53.6" />
<polygon points="266.4 35.8 262.9 29.5 258.3 35.5 266.4 35.8" />
<polygon points="383.6 46.7 382.3 40.5 376 41.1 383.6 46.7" />
<polygon points="97.4 90.6 103.4 98.6 104.6 91.6 97.4 90.6" />
<polygon points="55.9 32.3 60.7 38.5 48.7 38.8 55.9 32.3" />
<polygon points="207.2 112.7 215.4 112.9 213 100.3 207.2 112.7" />
<polygon points="23.6 89.6 14.2 81.3 14.4 87.7 23.6 89.6" />
<polygon points="105.5 46.3 100.9 51.2 107.6 57.1 105.5 46.3" />
<polygon points="143.8 88 145.1 94.9 151.5 87.8 143.8 88" />
<polygon points="23.5 44.5 32.5 43.3 29.5 35 23.5 44.5" />
<polygon points="181.6 101.5 187.3 105.8 192.8 94.2 181.6 101.5" />
<polygon points="393.7 23.4 380.2 30.1 392.7 33.9 393.7 23.4" />
<polygon points="22.1 62.1 14.4 63.3 14.8 69.8 22.1 62.1" />
<polygon points="313.9 53.6 302.5 49 301 55.8 313.9 53.6" />
<polygon points="177.3 39.8 188.6 44.1 188.5 35.8 177.3 39.8" />
<polygon points="166.8 104.3 176.3 96.2 166.5 92.7 166.8 104.3" />
<polygon points="100.9 51.2 105.5 46.3 100.4 39.6 100.9 51.2" />
<polygon points="80.8 44.9 86.2 51.2 94.2 45.4 80.8 44.9" />
<polygon points="188.4 63.6 193.3 77.7 187.6 73.7 188.4 63.6" />
<polygon points="374.7 34.7 380.2 30.1 373.2 23.9 374.7 34.7" />
<polygon points="100.4 39.6 105.5 46.3 106.2 36.3 100.4 39.6" />
<polygon points="356.3 112.7 368.9 113.4 363.4 105.5 356.3 112.7" />
<polygon points="398.4 48.5 400.2 40.1 390.7 43 398.4 48.5" />
<polygon points="320.7 73.4 326.4 80.2 325.9 68.5 320.7 73.4" />
<polygon points="14.6 51.6 14.4 63.3 21.3 53.2 14.6 51.6" />
<polygon points="238.3 22.5 238.5 13.8 227.2 13.9 238.3 22.5" />
<polygon points="169.2 55.4 163.6 63.5 170.7 66.6 169.2 55.4" />
<polygon points="112.5 51.2 114 64.1 107.6 57.1 112.5 51.2" />
<polygon points="224.5 89.2 213.2 88.2 216.2 93.5 224.5 89.2" />
<polygon points="85 24.6 96.2 31.6 93.6 23 85 24.6" />
<polygon points="23.6 80.1 18.7 75 14.2 81.3 23.6 80.1" />
<polygon points="122.9 98 118.2 108.6 129.5 103.5 122.9 98" />
<polygon points="272.6 55.4 264 58.8 273.1 63.5 272.6 55.4" />
<polygon points="112.6 88.3 109.4 103.3 117.7 93.1 112.6 88.3" />
<polygon points="251.8 41.9 266.3 42.4 258.2 35.5 251.8 41.9" />
<polygon points="279.7 108 272.9 113.6 283.2 113.6 279.7 108" />
<polygon points="34.4 22.2 24.5 13.7 26.5 26.7 34.4 22.2" />
<polygon points="223.8 71.5 223.8 62.8 213.4 67.7 223.8 71.5" />
<polygon points="375.4 86.8 385 78.7 381.1 86.6 375.4 86.8" />
<polygon points="100.7 63.9 107.1 70.3 114 64.1 100.7 63.9" />
<polygon points="279 60.3 274.7 70.6 282.3 72.2 279 60.3" />
<polygon points="271.3 84.5 273.7 91.1 280.5 85.2 271.3 84.5" />
<polygon points="207.2 112.7 213 100.3 204.7 98.7 207.2 112.7" />
<polygon points="241.7 30.9 251.3 31.2 246.7 23.9 241.7 30.9" />
<polygon points="28 54.8 32.5 43.3 23.5 44.5 28 54.8" />
<polygon points="86.8 18.9 85 24.6 93.6 23 86.8 18.9" />
<polygon points="145.1 94.9 159.6 98.1 151.5 87.8 145.1 94.9" />
<polygon points="302.5 49 296.2 48.5 301 55.8 302.5 49" />
<polygon points="284.9 92.7 280.5 85.2 273.7 91.1 284.9 92.7" />
<polygon points="94.2 45.4 94.4 57.6 100.9 51.2 94.2 45.4" />
<polygon points="365 89.1 369.3 99.2 377.9 95.6 365 89.1" />
<polygon points="316.8 51 329 53.9 328.2 43.4 316.8 51" />
<polygon points="231.9 75.3 238.6 79.1 238.4 69.7 231.9 75.3" />
<polygon points="293.5 71.7 294.6 61.2 286.2 66 293.5 71.7" />
<polygon points="26.5 26.7 19.6 30.6 29.5 35 26.5 26.7" />
<polygon points="381.1 86.6 388.6 91.1 385 78.7 381.1 86.6" />
<polygon points="241.1 13.5 246.7 23.8 252.6 13.9 241.1 13.5" />
<polygon points="23.4 98.6 14.3 105.3 23.9 106.3 23.4 98.6" />
<polygon points="315.6 45 304.1 42.2 302.5 49 315.6 45" />
<polygon points="208.7 88.3 213 100.3 216.2 93.5 208.7 88.3" />
<polygon points="387.9 54 398.4 48.5 390.7 43 387.9 54" />
<polygon points="30.5 85.2 39.4 88.5 37.5 80.8 30.5 85.2" />
<polygon points="221.1 44.2 213.5 44.7 213.4 50.3 221.1 44.2" />
<polygon points="393.7 23.4 386.1 18.7 380.2 30.1 393.7 23.4" />
<polygon points="308.1 23.5 307.7 14 300.5 13.8 308.1 23.5" />
<polygon points="405.9 51.5 398.4 48.5 398.5 56.9 405.9 51.5" />
<polygon points="339.9 30.8 338.1 39 348.7 44.1 339.9 30.8" />
<polygon points="224.5 89.2 233.4 83.3 225.4 79.9 224.5 89.2" />
<polygon points="345.2 99 358.4 97.9 348.8 91.2 345.2 99" />
<polygon points="89 38.2 94.2 45.4 100.4 39.6 89 38.2" />
<polygon points="376.3 104.5 383.8 99.1 377.9 95.6 376.3 104.5" />
<polygon points="178.7 59.5 188.7 52.5 175.4 48.7 178.7 59.5" />
<polygon points="284.9 92.7 291.4 88.8 280.5 85.2 284.9 92.7" />
<polygon points="38.5 29.8 50.4 25.5 43.2 20.5 38.5 29.8" />
<polygon points="374.7 34.7 373.2 23.9 366.3 32.5 374.7 34.7" />
<polygon points="32.5 69.3 37.5 80.8 41.4 68 32.5 69.3" />
<polygon points="100.7 63.9 99.4 74.7 107.1 70.3 100.7 63.9" />
<polygon points="328.2 43.4 336.3 47.3 338.1 39 328.2 43.4" />
<polygon points="47.4 87.9 44.4 76.3 37.5 80.8 47.4 87.9" />
<polygon points="233.4 83.3 238.5 89.2 232.4 93.8 233.4 83.3" />
<polygon points="389.9 62 388.5 72 395.6 65.4 389.9 62" />
<polygon points="232.9 112.8 230 104.9 223.7 113.1 232.9 112.8" />
<polygon points="326.4 80.2 332.9 73.8 325.9 68.5 326.4 80.2" />
<polygon points="280.5 85.2 291.4 88.8 291.1 81.7 280.5 85.2" />
<polygon points="366.3 32.6 373.2 23.9 364.7 22.3 366.3 32.6" />
<polygon points="297.9 77.3 293.6 71.7 291.2 81.7 297.9 77.3" />
<polygon points="179.3 31 188.5 27.4 181.3 22.6 179.3 31" />
<polygon points="54.1 79 47.4 87.9 55.3 87.9 54.1 79" />
<polygon points="238.3 22.5 226.2 30.2 238.4 33.6 238.3 22.5" />
<polygon points="85 24.6 82.2 32.5 96.2 31.6 85 24.6" />
<polygon points="377.9 95.6 388.6 91.1 381.1 86.6 377.9 95.6" />
<polygon points="122.9 98 129.5 103.5 132.4 95.6 122.9 98" />
<polygon points="23.9 106.3 25.3 111.1 33.4 104.5 23.9 106.3" />
<polygon points="238.3 60.5 231.9 66.6 238.4 69.7 238.3 60.5" />
<polygon points="23.5 70.6 30.2 63.1 22.1 62.1 23.5 70.6" />
<polygon points="173 28 172.9 19.6 163.8 23.1 173 28" />
<polygon points="14.6 43 21.6 37.6 14.5 34.5 14.6 43" />
<polygon points="238.3 60.5 229.6 56.8 231.9 66.6 238.3 60.5" />
<polygon points="161.4 73.7 176.5 78.2 170.7 66.6 161.4 73.7" />
<polygon points="364.7 22.3 370.1 14.3 361.4 14.1 364.7 22.3" />
<polygon points="14.6 113.2 25.3 111.1 23.9 106.3 14.6 113.2" />
<polygon points="213 100.3 220.4 104.4 216.2 93.5 213 100.3" />
<polygon points="24.5 13.7 19.6 30.6 26.5 26.7 24.5 13.7" />
<polygon points="273.1 63.5 264 58.8 264 66.3 273.1 63.5" />
<polygon points="383.9 99.1 383.4 109.7 392.2 105 383.9 99.1" />
<polygon points="254.2 72.2 266.2 81.9 267.8 74.1 254.2 72.2" />
<polygon points="356.1 91 352.3 85.9 348.8 91.2 356.1 91" />
<polygon points="82.2 32.5 75.4 26.8 72.5 39.5 82.2 32.5" />
<polygon points="145.1 94.9 137.4 88.4 132.4 95.6 145.1 94.9" />
<polygon points="126.1 89.3 132.4 95.6 137.4 88.4 126.1 89.3" />
<polygon points="175.4 48.7 188.6 44.1 177.3 39.8 175.4 48.7" />
<polygon points="77 20 76.7 15.1 70.6 19.6 77 20" />
<polygon points="192.8 94.2 204.7 98.7 200.7 89.7 192.8 94.2" />
<polygon points="70.6 19.6 63.7 14.1 62.7 25.9 70.6 19.6" />
<polygon points="345.2 99 351.9 104.9 358.4 97.9 345.2 99" />
<polygon points="225.4 79.9 223.8 71.5 217.4 76.3 225.4 79.9" />
<polygon points="99.4 74.7 105.3 81.3 107.1 70.3 99.4 74.7" />
<polygon points="336.2 47.3 328.1 43.4 329 53.9 336.2 47.3" />
<polygon points="100.7 63.9 89.5 69.2 99.4 74.7 100.7 63.9" />
<polygon points="179.3 31 181.3 22.6 173 28 179.3 31" />
<polygon points="39.4 45.1 34.5 51.5 39.4 63.1 39.4 45.1" />
<polygon points="383.6 46.7 390.7 42.9 382.3 40.5 383.6 46.7" />
<polygon points="213.2 88.2 208.7 88.3 216.2 93.5 213.2 88.2" />
<polygon points="14.2 81.3 23.6 89.6 23.6 80.1 14.2 81.3" />
<polygon points="14.4 63.3 22.1 62.1 21.3 53.2 14.4 63.3" />
<polygon points="224.5 89.2 225.4 79.9 213.2 88.2 224.5 89.2" />
<polygon points="32.5 43.3 34.5 51.5 39.4 45.1 32.5 43.3" />
<polygon points="60.7 38.5 69.1 32.2 72.5 39.5 60.7 38.5" />
<polygon points="63.6 81.1 54.1 79 55.3 87.9 63.6 81.1" />
<polygon points="21.6 37.6 14.6 43 23.5 44.5 21.6 37.6" />
<polygon points="400.9 77.6 396.6 86.7 405.6 91.8 400.9 77.6" />
<polygon points="300.5 13.8 291.1 21.1 295.9 28.3 300.5 13.8" />
<polygon points="14.4 87.7 14.3 95.5 23.6 89.6 14.4 87.7" />
<polygon points="333.1 86 326.4 80.2 324.4 92.9 333.1 86" />
<polygon points="385 78.7 396.6 86.7 395.2 74.7 385 78.7" />
<polygon points="392.2 105 399.1 99.9 388.6 91.1 392.2 105" />
<polygon points="175.5 87.4 176.3 96.2 182.7 92.4 175.5 87.4" />
<polygon points="316 27.7 308.1 23.5 304 32 316 27.7" />
<polygon points="44.4 76.3 54.1 79 51.7 66.4 44.4 76.3" />
<polygon points="365 89.1 377.9 95.6 375.4 86.8 365 89.1" />
<polygon points="164.3 80.4 175.5 87.4 176.5 78.2 164.3 80.4" />
<polygon points="346.2 22.5 336.6 22.5 339.9 30.8 346.2 22.5" />
<polygon points="280.5 85.2 276.2 77.7 271.3 84.5 280.5 85.2" />
<polygon points="322 38.2 316.8 51.1 328.2 43.4 322 38.2" />
<polygon points="286.4 102.4 279.7 108 291.1 109.1 286.4 102.4" />
<polygon points="290.7 44.9 296.1 48.5 297.6 38.6 290.7 44.9" />
<polygon points="279 60.3 286.2 66 285.4 54.9 279 60.3" />
<polygon points="238.4 113 237.9 107.4 232.9 112.8 238.4 113" />
<polygon points="373.2 23.9 386.1 18.7 378.7 16.3 373.2 23.9" />
<polygon points="163.9 33.1 164 41.1 170.1 36.5 163.9 33.1" />
<polygon points="213.2 88.2 225.4 79.9 217.4 76.3 213.2 88.2" />
<polygon points="308.1 23.5 316.2 14 307.7 14 308.1 23.5" />
<polygon points="99.9 86.8 97.4 90.6 104.6 91.6 99.9 86.8" />
<polygon points="150.9 101.8 159.6 98.1 145.1 94.9 150.9 101.8" />
<polygon points="352.2 15.5 336.6 22.5 346.2 22.5 352.2 15.5" />
<polygon points="273.1 63.5 279 60.3 272.6 55.4 273.1 63.5" />
<polygon points="385 78.7 388.6 91 396.7 86.7 385 78.7" />
<polygon points="213.6 77.9 217.4 76.3 213.2 88.2 213.6 77.9" />
<polygon points="157 80.3 164.3 80.4 161.4 73.7 157 80.3" />
<polygon points="374.7 34.7 366.3 32.5 367.7 38.4 374.7 34.7" />
<polygon points="232.4 93.8 224.5 89.2 225.4 99.7 232.4 93.8" />
<polygon points="242 47.4 259.9 51.2 251.8 41.9 242 47.4" />
<polygon points="252.6 14 256.6 23.2 266.9 13.5 252.6 14" />
<polygon points="119.8 79.6 112.6 88.3 117.7 93.1 119.8 79.6" />
<polygon points="336.2 47.3 329 53.9 339.6 59.3 336.2 47.3" />
<polygon points="255.1 63.9 264 66.3 264 58.8 255.1 63.9" />
<polygon points="388.5 72 395.2 74.8 395.7 65.5 388.5 72" />
<polygon points="402.8 68.8 413.2 75 414.5 65.6 402.8 68.8" />
<polygon points="364.7 22.3 354.6 24.5 357.8 30.4 364.7 22.3" />
<polygon points="400.2 40.1 392.7 33.9 390.7 43 400.2 40.1" />
<polygon points="267.8 74.1 276.2 77.7 274.7 70.6 267.8 74.1" />
<polygon points="23.5 70.6 32.5 69.3 30.2 63.1 23.5 70.6" />
<polygon points="220.4 104.4 223.7 113.1 230 104.9 220.4 104.4" />
<polygon points="338.5 106 346.7 110 345.2 99 338.5 106" />
<polygon points="351.2 33.3 354.6 24.5 346.2 22.5 351.2 33.3" />
<polygon points="37.5 80.8 44.4 76.3 41.4 68 37.5 80.8" />
<polygon points="181.3 22.6 172.9 19.6 173 28 181.3 22.6" />
<polygon points="301 55.8 294.6 61.2 300.9 67.5 301 55.8" />
<polygon points="161.4 73.7 170.7 66.6 163.6 63.5 161.4 73.7" />
<polygon points="23.4 98.6 33.4 104.5 38.3 96 23.4 98.6" />
<polygon points="204.7 98.7 192.8 94.2 198.9 105.9 204.7 98.7" />
<polygon points="343.8 77.3 352.3 85.9 344.4 85.2 343.8 77.3" />
<polygon points="238.6 79.1 231.9 75.3 233.4 83.3 238.6 79.1" />
<polygon points="77 20 70.6 19.6 75.4 26.8 77 20" />
<polygon points="262.9 29.5 256.6 23.2 251.3 31.2 262.9 29.5" />
<polygon points="204.7 98.7 208.7 88.3 200.7 89.7 204.7 98.7" />
<polygon points="356.1 91 365 89.1 352.3 85.9 356.1 91" />
<polygon points="29.5 35 38.5 29.8 26.5 26.7 29.5 35" />
<polygon points="414 56.4 404.8 59.9 414.5 65.7 414 56.4" />
<polygon points="380.2 30.1 386.1 18.7 373.2 23.9 380.2 30.1" />
<polygon points="32.5 69.3 23.5 70.6 31.5 77.3 32.5 69.3" />
<polygon points="48.7 38.8 55.9 32.3 46.2 32.2 48.7 38.8" />
<polygon points="255.1 63.9 254.2 72.2 264 66.3 255.1 63.9" />
<polygon points="104.6 91.6 103.4 98.6 109.4 103.3 104.6 91.6" />
<polygon points="213.4 67.7 223.8 62.8 213.3 58.1 213.4 67.7" />
<polygon points="266.3 113 269.9 105.3 266.5 97 266.3 113" />
<polygon points="93.6 23 106.2 36.3 96.2 31.6 93.6 23" />
<polygon points="181.3 22.6 178.4 13.7 172.9 19.6 181.3 22.6" />
<polygon points="224.5 89.2 216.2 93.5 225.4 99.7 224.5 89.2" />
<polygon points="396.7 86.7 388.6 91.1 399.1 99.9 396.7 86.7" />
<polygon points="354.6 24.5 352.1 15.6 346.1 22.5 354.6 24.5" />
<polygon points="268.7 49.4 266.3 42.4 259.9 51.1 268.7 49.4" />
<polygon points="291.1 14.1 291.1 21.1 300.4 13.8 291.1 14.1" />
<polygon points="112.5 51.2 105.5 46.3 107.6 57.1 112.5 51.2" />
<polygon points="28 54.8 39.4 63.1 34.5 51.5 28 54.8" />
<polygon points="238.3 22.5 226.7 23.5 226.2 30.2 238.3 22.5" />
<polygon points="23.5 44.5 21.3 53.2 28 54.8 23.5 44.5" />
<polygon points="126.1 89.3 117.7 93.1 122.9 98 126.1 89.3" />
<polygon points="336.6 22.4 328.4 29.4 339.9 30.7 336.6 22.4" />
<polygon points="345.2 99 346.7 110 351.9 104.9 345.2 99" />
<polygon points="357.6 39 357.8 30.4 351.2 33.3 357.6 39" />
<polygon points="345.2 99 348.8 91.2 338.6 93.1 345.2 99" />
<polygon points="200.7 89.7 200.5 84.7 193.2 85 200.7 89.7" />
<polygon points="357.8 30.4 357.6 39 366.2 32.6 357.8 30.4" />
<polygon points="163.7 52.1 163.6 63.5 169.2 55.4 163.7 52.1" />
<polygon points="14.3 95.5 14.3 105.3 23.4 98.6 14.3 95.5" />
<polygon points="104.6 91.6 109.4 103.3 112.6 88.3 104.6 91.6" />
<polygon points="291.3 96.8 284.9 92.7 286.5 102.4 291.3 96.8" />
<polygon points="126.1 89.3 119.8 79.6 117.7 93.1 126.1 89.3" />
<polygon points="126.5 111.4 129.5 103.5 118.2 108.6 126.5 111.4" />
<polygon points="404.8 59.9 405.9 51.5 398.5 57 404.8 59.9" />
<polygon points="238.3 99.4 232.4 93.8 225.4 99.7 238.3 99.4" />
<polygon points="343.8 77.3 332.9 73.8 333.1 86 343.8 77.3" />
<polygon points="331.3 35.8 338.1 39 339.9 30.8 331.3 35.8" />
<polygon points="43.2 20.5 34.4 22.2 38.5 29.8 43.2 20.5" />
<polygon points="245.6 59.6 254.2 72.2 255.1 63.9 245.6 59.6" />
<polygon points="231.9 66.6 223.8 71.5 231.9 75.3 231.9 66.6" />
<polygon points="395.7 65.4 395.2 74.8 402.9 68.8 395.7 65.4" />
<polygon points="181.5 70.9 170.7 66.6 176.5 78.2 181.5 70.9" />
<polygon points="182.7 92.4 181.6 101.5 192.8 94.2 182.7 92.4" />
<polygon points="129.5 103.5 135.7 113.4 138.8 101.9 129.5 103.5" />
<polygon points="398.5 57 398.3 48.6 387.8 54 398.5 57" />
<polygon points="221.1 44.2 231.9 49.2 228.3 38.9 221.1 44.2" />
<polygon points="358.4 97.9 356.1 91 348.8 91.2 358.4 97.9" />
<polygon points="404.8 59.9 414 56.4 405.9 51.5 404.8 59.9" />
<polygon points="241.3 39.1 241.9 47.4 251.8 41.9 241.3 39.1" />
<polygon points="24.5 13.7 38 13.5 34.4 22.2 24.5 13.7" />
<polygon points="231.9 49.2 221.8 53.2 229.6 56.8 231.9 49.2" />
<polygon points="246.7 23.8 251.3 31.1 256.6 23.1 246.7 23.8" />
<polygon points="181.3 22.6 188.4 13.8 178.4 13.7 181.3 22.6" />


<defs>
    <style type="text/css"><![CDATA[

.triangulo {
	fill: black;
	stroke: black;	
}


.punto {
	fill: black;
}

svg {
	margin-top:150px;
	fill:none;
}	
    ]]></style>
  </defs>
  

<script type="text/javascript"><![CDATA[

var svg = document.getElementById("logo");
var malla = crearMalla(svg,1);

//render(svg, malla);

setInterval(function() {render(svg, malla);}, 1);


function render(ventana, malla) {
	limpiarVentana(ventana);
	mostrarMalla(ventana, malla);
	animacion(malla);
}



function crearMalla(svg, error=0.0) {
	var poligonos = svg.getElementsByTagName("polygon");
	var vertices = new Array();
	var triangulos = new Array();
	
	for (var i=0;i<poligonos.length;i++) {
		if (poligonos[i].classList.contains("render")) continue;
		var points = poligonos[i].getAttribute('points').split(" ");
		var v = new Array();

		while (points.length > 0) {
			  var x=points.shift();
			  var y=points.shift();
			  var vertice = -1;
			  
		 	  for (var j=0;j<vertices.length;j++) {
			      if (distancia(x,y,vertices[j].x,vertices[j].y) <= error) {
				     vertice = j;
					 break;
					}
			  }
			  
			  if (vertice == -1) {
				  vertice = vertices.length;
				  vertices.push(crearVertice(x,y));
			  }
			  
			  v.push(vertice);
		}
		triangulos.push(crearTriangulo(v));
	}
	
	console.log(vertices.length, triangulos.length);
	
	return {'vertices':vertices, 'triangulos':triangulos};
}



function mostrarMalla(v, m) {
	for (var i=0;i<m.vertices.length;i++) {
		var vertice = m.vertices[i];
		var punto = crearCirculo(vertice.x, vertice.y, 1, "punto");
        punto.setAttribute('style', "opacity:"+vertice.opacity);
		v.appendChild(punto);
	}
	
	for (var i=0;i<m.triangulos.length;i++) {
		var t = m.triangulos[i];
		var triangulo = crearPoligono(t.vertices, m.vertices, "triangulo");
        triangulo.setAttribute('style', "opacity:"+t.opacity);
		v.appendChild(triangulo);
	}
}



function limpiarVentana(svg) {
	var elementos = svg.getElementsByClassName("render");
	while (elementos[0]) 
		elementos[0].parentNode.removeChild(elementos[0]);
}



function animacion(m) {
	//console.log(this.estado);
	
	if (typeof this.estado === 'undefined') {
		this.estado = 0;
		this.triangulosA = new Array();
		this.verticesA = new Array();
		this.deformacion = 1;
		}

	switch (this.estado) {
		case 0: if (fade(m.vertices,1))
					this.estado++;
				break;

		case 1: if (fade(m.triangulos, 1))
					this.estado++;
				break;
		
		case 2: if (fade(m.vertices, 0))
				   this.estado++;
				break;
				
		case 3:	if (Math.random()<.1) {
					this.deformacion++;			
					//limpiarVentana(svg);
					malla = crearMalla(svg, this.deformacion);
					setOpacity(malla.triangulos,1);
				}
				
				if (this.deformacion > 50) {
					malla = crearMalla(svg, 1);
					this.estado = 0;
					this.deformacion = 1;
				}
				break;
				
		case 4: if (Math.random()<.1) {
					var v = Math.floor(Math.random()*m.vertices.length);
					var t = buscarTriangulosVertice(m,v);
					for (var i=0;i<t.length;i++) {
						t[i].opacity = 0.0;						
					    this.triangulosA.push(t[i]);
						//console.log(">>",this.triangulosA.length);
					}
				}
				
				if (Math.random()<.5) {
					var t = this.triangulosA.random();
					if (t) {
						t.opacity = 1;
						this.triangulosA.remove(t);
					}
				}
				break;
				
		}
}
 

Array.prototype.remove = function(e) {
	var index = this.indexOf(e);
	if (index !== -1) this.splice(index, 1);
    return this;
}

Array.prototype.random = function() {
	return (this[Math.floor(Math.random()*this.length)]);
}
 

function moverVertices(m) {
	for (var i=0;i<m.vertices.length;i++) {
			v = m.vertices[i];

			var x = parseFloat(v.x);
			var y = parseFloat(v.y);

			v.x = x + Math.random()-.5;
			v.y = y + Math.random()-.5;		
		}	
}




function fade(o, objetivo) {
	var contador = o.length;
	
	for (var i=0, n=10;i<o.length && n>0;i++) {
		var obj = o[i];
		
		if (objetivo == 1) {		
			if (obj.opacity == 0.0) {
				obj.opacity = Math.random()/10;
				n--;
			}
			else obj.opacity += Math.random()/10;
		
			if (obj.opacity > 1) contador--;
		}			
		else {			
			obj.opacity -= Math.random()/10;		
			if (obj.opacity < 0) contador--;		
		}
	}
		
	return !contador;
}

function setOpacity(o, valor) {
	for (var i=0;i<o.length;i++)
		o[i].opacity = valor;
}


function distancia(x1,y1,x2,y2) {
 var a = x1 - x2;
 var b = y1 - y2;
 
 return Math.sqrt( a*a + b*b );
}

function crearTriangulo(vertices) {
 var obj = {'vertices':vertices};
 obj.opacity = 0.0;
 obj.estado = 0;
 
 obj.tieneVertice = function (v) {
	for (var i=0;i<this.vertices.length;i++)
		if (this.vertices[i] == v) 
			return true;
	return false;
 }
 
 return obj;
}

function crearVertice(x,y) {
 var obj = {'x':x, 'y':y};
 obj.opacity = 0.0;
 obj.estado = 0;
 obj.x0 = x;
 obj.y0 = y;


 obj.reset = function() {
	this.x = parseFloat(this.x0); 
	this.y = parseFloat(this.y0);
	};
 
 return obj;
}


function crearCirculo(x, y, r=1, clase="") {
	var circulo = document.createElementNS("http://www.w3.org/2000/svg", 'circle');
	circulo.setAttribute('cx', x);
	circulo.setAttribute('cy', y);
	circulo.setAttribute('r', r);
	circulo.setAttribute("class", "render "+clase);
	
	return circulo;
}

function crearPoligono(p, v, clase="") {
	var puntos = "";
	
	for (var i=0; i<p.length; i++) {
		var idv = p[i];
		var punto = v[idv];
		puntos = puntos + punto.x+" "+punto.y+" ";
	}
	
	var poligono = document.createElementNS("http://www.w3.org/2000/svg", 'polygon');
	poligono.setAttribute('points', puntos);
	poligono.setAttribute("class", "render "+clase);
	
	return poligono;
}


function resetTriangulo(t, m) {
	for (var i=0;i<t.vertices.length;i++)
	    m.vertices[t.vertices[i]].reset();
}


function buscarTriangulosVertice(m,v) {
	var t = new Array();
	
	for (var i=0;i<m.triangulos.length;i++)
		if (m.triangulos[i].tieneVertice(v))
			t.push(m.triangulos[i]);
	
	return t;
}



function hasClass(el, className)
{
	return !!el.className.match(new RegExp('(\\s|^)' + className + '(\\s|$)'));
}

function addClass(el, className)
{
	if (!hasClass(el, className))
    el.className += " " + className;
}

function removeClass(el, className)
{
	if (hasClass(el, className)) {
        var reg = new RegExp('(\\s|^)' + className + '(\\s|$)');
        el.className = el.className.replace(reg, ' ');
    }
}

]]></script>
</svg>
