<svg xmlns="http://www.w3.org/2000/svg" fill="currentColor" viewBox="0 0 43.9 52.4">
<path d="M40.8 49.3h3.1v3.1h-3.1zm-29-44.4v15.3c0 1-.2 1.9-.6 2.6s-.9 1.3-1.7 1.7c-.7.4-1.6.6-2.6.6H0V0h7c1 0 1.9.2 2.6.6s1.3.9 1.7 1.7q.6 1.05.6 2.7Zm-2.9-.1c0-.7-.2-1.2-.5-1.5-.3-.4-.8-.5-1.4-.5H2.9v19.6h4.2c.6 0 1.1-.2 1.4-.5.3-.4.5-.9.5-1.5V4.8Zm1.9 47.7-4.7-9.3H2.9v4.2H0V28.7h5.5c1.3 0 2.5.2 3.4.7.9.4 1.7 1.1 2.2 1.9s.7 1.9.7 3.1v2.9c0 1.2-.2 2.3-.7 3.2s-1.2 1.6-2.2 2l5.2 9.9h-3.3Zm-5.1-12c.7 0 1.2-.1 1.7-.4s.8-.6 1.1-1.1c.2-.5.4-1 .4-1.7v-2.6c0-.7-.1-1.3-.4-1.8s-.6-.9-1.1-1.2-1-.4-1.7-.4H2.8v9.1h2.9Zm32.7-28.4v35.4h-6.7c-.4 0-1.7 0-2.3-.3s-1.1-1-1.5-1.8c-.3-.8-.5-1.8-.5-2.9v-6.8c0-1.2.2-2.9.5-3.8.3-.8.8-1.5 1.5-1.9.6-.4 1.4-.7 2.3-.7h3.8V12.5c0-1-.2-1.8-.6-2.2-.4-.5-1-.7-1.9-.7h-2.6v15.5h-2.9V7.2h6.7c1.4 0 2.5.4 3.2 1.3s1.1 1.9 1.1 3.6Zm-2.9 20.5H33c-.8 0-1.4.3-1.8.8s-.7 1.3-.7 2.3v5.8c0 .9.2 1.6.7 2.1.4.5 1.1.7 1.8.7h2.5zm5.4-28.3h2.9V1.4h-2.9zm2.9 18.1V7.2h-2.9v17.9h2.9zm-2.9 6.8v18.2h2.9V29.2zM19.4 47.7c1.1 0 2.3-.2 3.1-.6s1.3-1 1.8-1.8.6-1.7.6-2.8v-8.2c0-1.1-.2-2-.6-2.8s-1-1.3-1.8-1.8-2-.6-3.1-.6-2.3.2-3.1.6q-1.2.6-1.8 1.8c-.4.8-.6 1.7-.6 2.8v8.1c0 1.1.2 2 .6 2.8q.6 1.2 1.8 1.8c.8.4 2 .6 3.1.6Zm0-2.8c-.7 0-1.6-.2-2-.6q-.6-.6-.6-1.8v-8.1c0-.8.2-1.3.6-1.8.4-.4 1.2-.6 1.9-.6s1.6.2 2 .6q.6.6.6 1.8v8.1q0 1.2-.6 1.8c-.4.4-1.2.6-2 .6ZM24.8 12v13.1h-6.3c-1.5 0-2.7-.2-3.4-1-.8-.8-1.1-2.1-1.1-3.8s.5-3.5 1.4-4.5 2.3-1.5 4.1-1.5h2.6V12c0-.8-.2-1.5-.7-2s-1.1-.7-1.9-.7-1.3.2-1.7.7-.6 1.1-.6 2h-2.8c0-1.6.5-2.9 1.4-3.8s2.2-1.3 3.8-1.3 2.1.2 2.9.6 1.4 1 1.8 1.7c.4.8.6 1.7.6 2.8Zm-2.7 4.7h-2.6c-.9 0-1.7.3-2.1.9-.5.6-.7 1.5-.7 2.7s.2 1.6.6 2q.6.6 1.8.6h3v-6.3Z"/>
</svg>