<svg xmlns="http://www.w3.org/2000/svg" width="25" height="25" viewBox="0 -50 1024 850">
  <path d="M249.2 159.2H773v75.4H249.2zM253 789h520.1v75.4H253zM119.2 308.7h66.9v405.8h-66.9zm720.7 0h66.9v405.8h-66.9z"/>
  <path d="M186.1 234.6H253V310h-66.9zm520.1 314.9v72H319.8v-72H253v75.4h66.8v72h386.4v-72H773v-75.4zM186.1 713.6H253V789h-66.9zm163.4-378h66.9V411h-66.9zm260.1 0h66.9V411h-66.9zm163.4-101h66.9V310H773zm0 479h66.9V789H773zM947.6 411h66.9v75.4h-66.9zm0 125.7h66.9v75.4h-66.9zM11.5 411h66.9v75.4H11.5zm0 125.7h66.9v75.4H11.5z"/>
</svg>